<svg width="20" height="22" viewBox="0 0 20 22" fill="none" xmlns="http://www.w3.org/2000/svg">
<path id="Vector" d="M7.52563 21.7906C9.02563 21.5703 10.4084 20.8812 11.5006 19.8031C12.8413 18.4766 13.5819 16.7188 13.5913 14.8438L13.5725 6.50469C14.21 6.99688 14.9084 7.40938 15.6631 7.72344C16.8303 8.21563 18.0678 8.46875 19.3381 8.46875V5.76406C17.9272 5.49219 16.6991 4.70469 15.86 3.59844C14.7538 2.76406 13.9569 1.53594 13.6803 0.125H10.9944V10.3109L10.9897 15.8891C10.9897 17.3797 10.01 18.6453 8.65063 19.0906C8.25688 19.2219 7.83032 19.2828 7.38501 19.2547C6.26001 19.1938 5.28032 18.5891 4.70376 17.7031C3.72407 17.1219 3.05844 16.0672 3.03969 14.8578C3.01157 12.9734 4.54907 11.4359 6.45219 11.4359C6.82719 11.4359 7.18813 11.4969 7.52563 11.6047V8.82969C5.63188 8.84375 3.85532 9.57969 2.51938 10.9062C1.19282 12.2234 0.433444 14.0234 0.438132 15.8891C0.438132 17.5484 1.01469 19.1234 2.07876 20.3844C3.32563 21.3453 4.84907 21.8656 6.45219 21.8656C6.81313 21.8703 7.17407 21.8422 7.52563 21.7906Z" fill="black"/>
</svg>
